# Blender v2.77 (sub 0) OBJ File: ''
# www.blender.org
mtllib axis3.mtl
o Cylinder.002
v -0.032632 -0.000000 0.000000
v -0.032632 1.160290 0.000000
v 0.000000 -0.000000 -0.032632
v 0.000000 1.160290 -0.032632
v 0.032632 -0.000000 0.000000
v 0.032632 1.160290 0.000000
v 0.000000 -0.000000 0.032632
v 0.000000 1.160290 0.032632
v -0.000000 0.032632 0.000000
v 1.160290 0.032632 0.000000
v -0.000000 0.000000 -0.032632
v 1.160290 0.000000 -0.032632
v -0.000000 -0.032632 0.000000
v 1.160290 -0.032632 0.000000
v -0.000000 0.000000 0.032632
v 1.160290 0.000000 0.032632
v 0.000000 0.032632 -0.000000
v 0.000000 0.032632 1.160290
v 0.032632 0.000000 -0.000000
v 0.032632 0.000000 1.160290
v -0.000000 -0.032632 -0.000000
v -0.000000 -0.032632 1.160290
v -0.032632 0.000000 -0.000000
v -0.032632 0.000000 1.160290
vn -0.8165 0.5773 0.0000
vn 0.0000 -0.5773 -0.8165
vn -0.8165 -0.5773 0.0000
vn 0.0000 0.5773 -0.8165
vn 0.8165 -0.5773 0.0000
vn 0.8165 0.5773 0.0000
vn 0.0000 -0.5773 0.8165
vn 0.0000 0.5773 0.8165
vn 0.5773 0.8165 0.0000
vn -0.5773 0.0000 -0.8165
vn -0.5773 0.8165 0.0000
vn 0.5773 0.0000 -0.8165
vn -0.5773 -0.8165 0.0000
vn 0.5773 0.0000 0.8165
vn 0.5773 -0.8165 0.0000
vn -0.5773 0.0000 0.8165
vn 0.0000 0.8165 0.5773
vn 0.8165 0.0000 -0.5773
vn 0.0000 0.8165 -0.5773
vn 0.8165 0.0000 0.5773
vn 0.0000 -0.8165 -0.5773
vn 0.0000 -0.8165 0.5773
vn -0.8165 0.0000 -0.5773
vn -0.8165 0.0000 0.5773
usemtl Material.003
s 1
f 2//1 3//2 1//3
f 4//4 5//5 3//2
f 2//1 6//6 4//4
f 6//6 7//7 5//5
f 8//8 1//3 7//7
f 3//2 7//7 1//3
f 2//1 4//4 3//2
f 4//4 6//6 5//5
f 2//1 8//8 6//6
f 6//6 8//8 7//7
f 8//8 2//1 1//3
f 3//2 5//5 7//7
usemtl Material.002
f 10//9 11//10 9//11
f 12//12 13//13 11//10
f 12//12 16//14 14//15
f 14//15 15//16 13//13
f 16//14 9//11 15//16
f 9//11 13//13 15//16
f 10//9 12//12 11//10
f 12//12 14//15 13//13
f 12//12 10//9 16//14
f 14//15 16//14 15//16
f 16//14 10//9 9//11
f 9//11 11//10 13//13
usemtl Material.001
f 18//17 19//18 17//19
f 20//20 21//21 19//18
f 18//17 22//22 20//20
f 22//22 23//23 21//21
f 24//24 17//19 23//23
f 17//19 21//21 23//23
f 18//17 20//20 19//18
f 20//20 22//22 21//21
f 18//17 24//24 22//22
f 22//22 24//24 23//23
f 24//24 18//17 17//19
f 17//19 19//18 21//21
